{"title":"I Taket Lyser StjÃƒÂ¤rnorna.x264.AC3.mkv","uid":5396674,"size":1479798964,"categoryP":"video","categoryS":"movies","magnet":"?xt=urn:btih:d3d47ab43999517a773e22f4026d54f9524186cd&amp;dn=I+Taket+Lyser+Stj%C3%83%C2%A4rnorna.x264.AC3.mkv&amp;tr=udp%3A%2F%2Ftracker.openbittorrent.com%3A80&amp;tr=udp%3A%2F%2Fopen.demonii.com%3A1337&amp;tr=udp%3A%2F%2Ftracker.coppersurfer.tk%3A6969&amp;tr=udp%3A%2F%2Fexodus.desync.com%3A6969","seeders":0,"leechers":1,"uploader":"Zen_Bud","files":-1,"time":1267259913,"description":"General\nComplete name                    : I Taket Lyser StjÃƒÂ¤rnorna.mkv\nFormat                           : Matroska\nFile size                        : 1.38 GiB\nDuration                         : 1h 25mn\nOverall bit rate                 : 2 299 Kbps\n\n\nVideo\nID                               : 1\nFormat                           : AVC\nDuration                         : 1h 25mn\nBit rate                         : 1 805 Kbps\nWidth                            : 710 pixels\nHeight                           : 552 pixels\nDisplay aspect ratio             : 16:9\nOriginal display aspect ratio    : 16:9\nFrame rate                       : 25.000 fps\nResolution                       : 8 bits\nColorimetry                      : 4:2:0\nScan type                        : Progressive\nBits/(Pixel*Frame)               : 0.184\nStream size                      : 1.08 GiB (79%)\nWriting library                  : x264 core 79\n\nAudio\nID                               : 2\nFormat                           : AC-3\nFormat/Info                      : Audio Coding 3\nCodec ID                         : A_AC3\nDuration                         : 1h 25mn\nBit rate mode                    : Constant\nBit rate                         : 448 Kbps\nChannel(s)                       : 6 channels\nChannel positions                : Front: L C R, Surround: L R, LFE\nSampling rate                    : 48.0 KHz\nStream size                      : 275 MiB (19%)\nLanguage                         : Swedish\n\nText #1\nLanguage                         : Swedish\n\nText #2\nLanguage                         : Norwegian\n\nText #3\nLanguage                         : Danish\n\nText #4\nLanguage                         : English\n\n","torrent":{"xt":"urn:btih:d3d47ab43999517a773e22f4026d54f9524186cd","amp;dn":"I+Taket+Lyser+Stj%C3%83%C2%A4rnorna.x264.AC3.mkv","amp;tr":["udp%3A%2F%2Ftracker.openbittorrent.com%3A80","udp%3A%2F%2Fopen.demonii.com%3A1337","udp%3A%2F%2Ftracker.coppersurfer.tk%3A6969","udp%3A%2F%2Fexodus.desync.com%3A6969"],"infoHash":"d3d47ab43999517a773e22f4026d54f9524186cd","infoHashBuffer":{"type":"Buffer","data":[211,212,122,180,57,153,81,122,119,62,34,244,2,109,84,249,82,65,134,205]},"announce":[],"urlList":[]}}